<svg width="52" height="53" viewBox="0 0 52 53" fill="none" xmlns="http://www.w3.org/2000/svg">
<g clip-path="url(#clip0_134_4238)">
<path d="M35.3179 0.571411H16.4821C7.3793 0.571411 0 8.00092 0 17.1657V36.1295C0 45.2943 7.3793 52.7238 16.4821 52.7238H35.3179C44.4207 52.7238 51.8 45.2943 51.8 36.1295V17.1657C51.8 8.00092 44.4207 0.571411 35.3179 0.571411Z" fill="#F99F3A"/>
<path fill-rule="evenodd" clip-rule="evenodd" d="M36.6697 23.3973C37.1588 19.9103 34.6655 18.0366 31.257 16.7853L32.3629 12.0601L29.6635 11.3427L28.5868 15.9434C27.8777 15.7551 27.1487 15.5766 26.4227 15.4013L27.507 10.7711L24.8092 10.0537L23.7017 14.7773L18.2567 13.3409L17.5384 16.4119C17.5384 16.4119 19.5411 16.8999 19.4996 16.9311C20.5932 17.2226 20.7916 17.9924 20.7577 18.6033L17.7276 31.544C17.5938 31.8962 17.2539 32.4268 16.4894 32.2254C16.5171 32.2663 14.5268 31.7045 14.5268 31.7045L13.1855 34.9966L18.6228 36.4576L17.5061 41.2352L20.2025 41.9526L21.3099 37.2257C22.0467 37.437 22.7619 37.6352 23.4618 37.8203L22.3589 42.5242L25.0583 43.2416L26.1766 38.4738C30.7817 39.4008 34.244 39.0274 35.7006 34.5921C36.4678 31.51 35.6422 28.9611 33.2196 27.6181C34.9854 27.1857 36.3143 25.9507 36.6697 23.3973ZM31.9304 23.2188C31.1872 26.2465 26.9233 25.0918 24.9638 24.5611C24.7841 24.5125 24.6238 24.469 24.4874 24.4346L25.9199 18.5877C26.0852 18.6298 26.2879 18.6756 26.5178 18.7275C28.5461 19.1856 32.6886 20.1211 31.9304 23.2188ZM30.9915 32.5091C30.2179 35.9208 25.3563 34.5084 23.1334 33.8626L23.1331 33.8626C22.9338 33.8047 22.7557 33.7529 22.6037 33.7114L24.1003 27.1217C24.2858 27.1726 24.5126 27.2285 24.7694 27.2918L24.7697 27.2919C27.0696 27.8588 31.7832 29.0207 30.9915 32.5091Z" fill="white"/>
</g>
<defs>
<clipPath id="clip0_134_4238">
<path d="M0 26.6476C0 12.3434 11.5958 0.571411 25.9 0.571411C40.2042 0.571411 51.8 12.3434 51.8 26.6476C51.8 40.9518 40.2042 52.7238 25.9 52.7238C11.5958 52.7238 0 40.9518 0 26.6476Z" fill="white"/>
</clipPath>
</defs>
</svg>
