<svg width="52" height="53" viewBox="0 0 52 53" fill="none" xmlns="http://www.w3.org/2000/svg">
<g clip-path="url(#clip0_134_4105)">
<path d="M35.3179 0.571411H16.4821C7.3793 0.571411 0 8.00092 0 17.1657V36.1295C0 45.2943 7.3793 52.7238 16.4821 52.7238H35.3179C44.4207 52.7238 51.8 45.2943 51.8 36.1295V17.1657C51.8 8.00092 44.4207 0.571411 35.3179 0.571411Z" fill="#4D5BA9"/>
<path d="M27.3125 33.7281V41.3451L36.7307 28.0699L27.3125 33.7281Z" fill="white"/>
<path d="M26.3708 33.7281V41.3451L16.9526 28.0699L26.3708 33.7281Z" fill="white"/>
<path d="M27.3125 21.608V11.9501L34.847 25.2252L27.3125 21.608Z" fill="white"/>
<path d="M27.3125 23.3289L34.847 27.0602L27.3125 31.8629V23.3289Z" fill="white"/>
<path d="M25.4291 11.9501V21.608L17.8945 25.2252L25.4291 11.9501Z" fill="white"/>
<path d="M17.8945 27.0602L25.4291 23.3289V31.8629L17.8945 27.0602Z" fill="white"/>
</g>
<defs>
<clipPath id="clip0_134_4105">
<rect y="0.571411" width="51.8" height="52.1524" rx="25.9" fill="white"/>
</clipPath>
</defs>
</svg>
